<svg width="89" height="65" viewBox="0 0 89 65" xmlns="http://www.w3.org/2000/svg">
<path d="M8.85665 51.3431C8.85665 53.1582 9.11215 54.5412 9.70832 55.3192C10.3045 56.0971 11.1562 56.5293 12.4337 56.5293C13.7112 56.5293 14.648 56.0971 15.159 55.3192C15.67 54.5412 16.0107 53.1582 16.0107 51.3431V0H24.8681V47.7992C24.8681 49.7008 24.8681 51.2567 24.783 52.4668C24.6978 53.6769 24.6126 54.7141 24.5275 55.5785C24.4423 56.4428 24.1868 57.2207 23.9313 57.8258C23.6758 58.4309 23.3351 59.1223 22.9093 59.8138C21.8021 61.4561 20.3543 62.6662 18.4806 63.617C16.6069 64.5678 14.5629 65 12.3485 65C10.1342 65 8.09014 64.5678 6.21645 63.617C4.34277 62.6662 2.89492 61.4561 1.78775 59.8138C1.36191 59.1223 1.02124 58.4309 0.765737 57.8258C0.510235 57.2207 0.3399 56.4428 0.169565 55.5785C-0.000770025 54.7141 -0.0859375 53.6769 -0.0859375 52.4668C-0.000770032 51.2567 -0.000770032 49.7008 -0.000770032 47.7992V0H8.85665V51.3431ZM38.4098 64.0492H29.893L38.4949 0H49.8222L58.0834 64.0492H49.4815L47.8633 49.6144H39.9428L38.4098 64.0492ZM43.8605 11.5824L40.8796 41.2301H46.9265L43.8605 11.5824ZM72.6471 0C74.6059 0 76.2241 0.0864362 77.5868 0.172872C78.9495 0.259309 80.1418 0.518617 81.1638 0.864362C82.1858 1.21011 83.0375 1.64229 83.7188 2.24734C84.4002 2.85239 85.0815 3.54388 85.7629 4.32181C86.359 5.18617 86.87 6.13697 87.2959 7.00133C87.7217 7.86569 88.0624 8.81649 88.3179 9.94016C88.5734 11.0638 88.7437 12.3604 88.8289 13.8298C88.9141 15.2992 88.9992 17.0279 88.9992 19.016C88.9992 21.0904 88.9141 22.992 88.8289 24.4614C88.7437 26.0173 88.5734 27.3138 88.3179 28.4375C88.0624 29.5612 87.7217 30.512 87.2959 31.3763C86.87 32.2407 86.359 33.0186 85.6777 33.7965C83.3782 36.5625 79.5456 37.9455 74.2653 37.9455H73.0729V63.9628H64.2155V0H72.6471ZM74.2653 29.734C75.5428 29.734 76.6499 29.5612 77.4165 29.3019C78.183 29.0426 78.7791 28.5239 79.2901 27.746C79.716 26.9681 80.0566 25.9309 80.227 24.4614C80.3973 23.0785 80.4825 21.2633 80.4825 19.016C80.4825 16.7686 80.3973 14.9535 80.227 13.6569C80.0566 12.2739 79.8011 11.2367 79.2901 10.4588C78.8643 9.68085 78.183 9.16224 77.4165 8.90293C76.6499 8.64362 75.6279 8.47075 74.2653 8.47075H73.0729V29.734H74.2653Z"></path>
</svg>